<?xml version="1.0" encoding="UTF-8"?>
<svg width="238px" height="302px" viewBox="0 0 238 302" version="1.1" xmlns="http://www.w3.org/2000/svg" xmlns:xlink="http://www.w3.org/1999/xlink">
    <title>形状结合</title>
    <g id="页面-1" stroke="none" stroke-width="1" fill="none" fill-rule="evenodd">
        <path d="M133.308744,4.86896975 C139.787102,9.43297685 143.098965,15.8653568 143.505764,23.6134764 C143.91369,31.3604704 140.716768,37.7613356 134.978761,42.9365032 C132.215682,45.4284173 129.113417,47.1842376 125.481525,48.1713237 C124.5158,48.4335712 124.143933,48.5326175 124.35015,50.1556257 C125.336159,59.3376651 126.461899,68.5050727 127.491856,77.6826101 C127.685677,79.4024135 128.375319,80.3478552 130.192956,80.3816209 C139.148169,80.5481987 147.88815,82.2736298 156.437691,84.6957613 C163.51667,86.7003227 170.495358,89.1731029 177.307269,91.9531516 C182.122373,93.9194452 186.601669,96.7163768 191.203795,99.1925336 C199.094118,103.438017 205.859828,109.19283 212.182679,115.423741 C217.475574,120.639428 222.091222,126.429132 226.062301,132.79173 C230.007463,139.111557 233.149169,145.756661 235.140343,152.844097 C236.582733,157.979871 237.773831,167.864239 237.879757,173.168842 C238.096115,183.972764 238.081466,186.807964 237.318577,197.583748 C236.783315,205.12477 233.851207,215.815014 231.156868,222.933965 C226.518683,235.186439 219.318002,245.821532 210.664789,255.382874 C203.133936,263.70276 194.770329,271.310189 185.073637,277.175304 C178.660637,281.053866 172.221718,284.961692 165.485307,288.215587 C155.298428,293.136386 144.649534,296.939537 133.557781,299.38643 C130.056605,300.158541 126.599377,301.136623 123.082425,301.816441 C120.423582,302.330018 119.922192,301.851749 119.899829,299.28001 L119.899025,284.796239 L119.950861,284.796239 C119.950861,279.900202 119.938465,275.004165 119.956495,270.108128 C119.963256,268.341052 119.10233,267.631971 117.37935,267.697252 C107.588002,268.073177 97.9059599,266.769818 88.4109777,264.755127 C77.8375837,262.511954 67.58422,259.080226 57.7770956,254.319252 C48.1694267,249.653947 39.2784453,243.990302 31.192047,237.064941 C24.9469495,231.715317 19.4669948,225.646482 14.71725,218.92034 C10.0024381,212.243721 6.37730661,205.012218 3.83847503,197.274228 C0.15249275,186.03923 -1.03184457,174.485707 0.955948992,162.823009 C1.96449505,156.908371 3.41589987,150.939708 5.661746,145.397619 C8.35495837,138.746887 11.9947391,132.505846 16.3230356,126.639606 C20.9082579,120.426703 26.1538242,114.948769 31.9650778,109.95256 C39.8396251,103.181397 48.4026882,97.4749812 57.9754242,93.3465526 C62.5831838,91.3599995 67.0365626,88.871462 71.8088447,87.4409187 C79.2461676,85.2112521 86.8581548,83.4982019 94.471269,81.9370976 C99.0429688,80.9995346 103.756654,80.7462913 108.410615,80.2308005 C109.753841,80.0811055 110.280088,79.4215474 110.409677,78.0979291 C111.056499,71.5113521 111.724731,64.9259007 112.493254,58.35283 C112.80427,55.6909615 113.243748,52.8039879 113.576174,50.1398683 C113.774502,48.5540025 113.575047,48.469588 112.293799,47.9721056 C103.168429,44.4266994 96.9120631,38.410764 95.1169638,28.3440613 C93.1810061,17.490616 98.9629612,7.46330671 107.93395,2.87116146 C116.642379,-1.58592069 125.256151,-0.803680266 133.308744,4.86896975 Z M70.5467536,132.630779 C60.6382112,132.61052 51.4598786,134.700621 43.266428,140.580368 C37.5036296,144.71555 33.1809674,150.022404 30.3243593,156.368118 C27.9196249,161.708738 25.6996968,166.172574 26.180869,176.000665 C26.3904663,180.287793 27.9500504,183.793806 29.1625594,187.071337 C30.7063673,191.247037 33.1854749,195.238152 35.9451724,198.776805 C43.5177193,208.48559 53.7846055,213.377126 66.0336508,213.610109 C79.2856079,213.862227 92.54658,213.667511 105.804171,213.668637 C118.16365,213.668637 130.524255,213.592101 142.882606,213.701277 C148.900077,213.755302 154.572726,212.728823 160.159733,210.37985 C166.112972,207.875555 171.045269,204.126429 175.130162,199.314806 C180.517714,192.970217 183.672942,185.564258 184.265674,177.191471 C185.386907,161.333938 179.615093,148.76069 166.457793,139.592156 C159.31909,134.618458 151.305938,132.681428 142.838659,132.642035 C118.741733,132.528357 94.6436796,132.681428 70.5467536,132.630779 Z M65.953756,154.211836 C70.8578816,155.999171 73.1566905,159.767431 73.3088175,164.653339 C73.5184148,171.394113 73.3426235,178.152895 73.1341531,184.897046 C73.0158321,188.750846 69.0672898,192.919794 65.0702922,193.866361 C60.4647863,194.956995 55.9190044,193.080744 53.4984939,189.456551 C52.2285147,187.555538 51.8048127,185.64327 51.8667904,183.445118 C51.954686,180.277888 51.8893277,177.107282 51.8893277,173.937801 L51.9659547,173.937801 C51.9659547,170.355253 51.8397455,166.768202 52.0008875,163.193532 C52.1676639,159.482673 54.0777036,156.8647 57.432387,155.121261 C60.2168756,153.672709 62.9303715,153.111072 65.953756,154.211836 Z M115.608366,156.161697 C118.719646,158.807808 119.576065,162.176507 119.684244,165.661135 C119.885953,172.185808 119.752983,178.753251 119.215467,185.257664 C118.877407,189.356829 116.275471,192.482414 112.199593,193.622572 C106.994594,195.077877 102.884909,193.386212 100.02154,189.45475 C98.3718067,187.190192 97.9717689,184.685897 97.9154256,182.051041 C97.8545747,179.224846 97.9007763,176.397525 97.9007763,173.570205 C97.8557016,173.565702 97.8106269,173.562326 97.7655522,173.557824 C98.0033212,169.514935 97.8072463,165.386506 98.5791503,161.447166 C99.7612339,155.417724 108.766029,150.339352 115.608366,156.161697 Z" id="形状结合" fill="#3171FF"></path>
    </g>
</svg>